<?xml version="1.0" standalone="no"?><svg xmlns="http://www.w3.org/2000/svg" viewBox="0 0 1440 320"><path fill="#4b4276" fill-opacity="0.84" d="M0,32L26.7,64C53.3,96,107,160,160,197.3C213.3,235,267,245,320,250.7C373.3,256,427,256,480,266.7C533.3,277,587,299,640,298.7C693.3,299,747,277,800,266.7C853.3,256,907,256,960,256C1013.3,256,1067,256,1120,229.3C1173.3,203,1227,149,1280,144C1333.3,139,1387,181,1413,202.7L1440,224L1440,320L1413.3,320C1386.7,320,1333,320,1280,320C1226.7,320,1173,320,1120,320C1066.7,320,1013,320,960,320C906.7,320,853,320,800,320C746.7,320,693,320,640,320C586.7,320,533,320,480,320C426.7,320,373,320,320,320C266.7,320,213,320,160,320C106.7,320,53,320,27,320L0,320Z"></path></svg>